<svg version="1" xmlns="http://www.w3.org/2000/svg" width="504" height="504" viewBox="0 0 378.000000 378.000000"><path d="M165.5 7.6c-4.5 1.7-8 4.6-10.3 8.9-1.5 2.6-1.8 7.8-2.2 36.5l-.5 33.5H131c-20.7.1-21.7.2-25.8 2.5-8.1 4.5-11.1 17.9-6.3 28 3.8 8.1 5.2 8.5 31.4 8.8l22.7.3.1 90.2c0 49.6.2 91.1.4 92.2.2 1.1.6 3.8.9 6 3.1 25.1 17.6 43.8 40.1 51.5 16.3 5.6 39.4 6 58.5 1 14.8-3.8 25.7-9.7 28.6-15.6 3.1-6.3 2.6-16.5-1.1-23.3-6.2-11.2-13.5-12.9-27.5-6.3-10.9 5.1-15.9 6.4-24.6 6.4-15.4-.1-23.4-5.1-28-17.7-1.8-4.7-1.9-10.2-2.2-94.7l-.3-89.7 35.3-.3c35.1-.3 35.3-.3 39.1-2.7 7.1-4.4 10-15.2 6.7-25.1-1.7-5.1-3.1-6.7-8.5-9.7-2.6-1.5-7.2-1.7-37.2-1.8-18.8 0-34.4-.3-34.7-.6-.3-.3-.6-15.1-.6-32.9-.1-34-.2-35.1-4.9-40.4-4.9-5.6-18.9-8.1-27.6-5z"/></svg>